<?xml version="1.0" encoding="utf-8"?>
<!-- Generator: Adobe Illustrator 27.1.0, SVG Export Plug-In . SVG Version: 6.00 Build 0)  -->
<svg version="1.1" id="Laag_1" xmlns="http://www.w3.org/2000/svg" xmlns:xlink="http://www.w3.org/1999/xlink" x="0px" y="0px"
	 viewBox="0 0 198.5 211.1" style="enable-background:new 0 0 198.5 211.1;" xml:space="preserve">
<g>
	<path d="M68.2,81h-9.9v30.5h9.9c9.4,0,15.8-5.6,15.8-15.2S77.6,81,68.2,81z"/>
	<path d="M176.1,40.7c-22.7-9.5-45.4-18.9-68.1-28.5c-2.7-1.2-5.4-1.7-8.1-1.7c-2.7,0-5.3,0.6-8.1,1.7
		c-22.7,9.6-45.4,18.9-68.1,28.5C13.1,45.2,10.1,50,10.4,61.5c1,43.3,15.1,81.5,45.3,113c9.5,9.9,20.6,17.8,32.9,24
		c3.8,1.9,7.5,2.8,11.3,2.9c3.7,0,7.5-0.9,11.3-2.9c12.3-6.2,23.4-14.1,32.9-24c30.3-31.6,44.3-69.7,45.3-113
		C189.7,50,186.7,45.2,176.1,40.7z M68.8,124H42.6V68.5h26.3c18.4,0,31,10.7,31,27.8S87.2,124,68.8,124z M134.2,112.1
		c5.3,0,9.6-2.3,13.1-6.5l10,9c-5.4,6.7-13.6,10.5-23.9,10.5c-17.6,0-30.5-12-30.5-28.9s12.9-28.9,30.5-28.9
		c10.2,0,18.5,3.7,23.9,10.5l-10,9c-3.5-4.2-7.8-6.5-13.1-6.5c-9.1,0-15.5,6.3-15.5,15.9S125.1,112.1,134.2,112.1z"/>
</g>
</svg>
