<?xml version="1.0" encoding="utf-8"?>
<!-- Generator: Adobe Illustrator 27.1.0, SVG Export Plug-In . SVG Version: 6.00 Build 0)  -->
<svg version="1.1" id="Laag_1" xmlns="http://www.w3.org/2000/svg" xmlns:xlink="http://www.w3.org/1999/xlink" x="0px" y="0px"
	 viewBox="0 0 198.5 211.1" style="enable-background:new 0 0 198.5 211.1;" xml:space="preserve">
<path d="M176.4,40.6c-22.7-9.5-45.4-18.9-68.1-28.5c-2.7-1.2-5.4-1.7-8.1-1.7c-2.7,0-5.3,0.6-8.1,1.7C69.4,21.7,46.7,31.1,24,40.6
	C13.4,45,10.4,49.8,10.7,61.3c1,43.3,15.1,81.5,45.3,113c9.5,9.9,20.6,17.8,32.9,24c3.8,1.9,7.5,2.8,11.3,2.9
	c3.7,0,7.5-0.9,11.3-2.9c12.3-6.2,23.4-14.1,32.9-24c30.3-31.6,44.3-69.7,45.3-113C189.9,49.8,187,45,176.4,40.6z M143.8,148.2
	c-10.6,14.2-23.3,26-39.3,34.1c-1.5,0.8-3,1.2-4.4,1.2c-1.4,0-2.8-0.4-4.4-1.2c-16-8.1-28.7-19.9-39.3-34.1
	C37.2,122.5,29,93.1,27.7,61.4c-0.1-3.1,1.5-4.4,4-5.4c21.5-8.9,43-18,64.6-26.7c1.1-0.5,2.5-0.7,3.9-0.7c1.4,0,2.7,0.2,3.9,0.7
	c21.6,8.7,43.1,17.8,64.6,26.7c2.5,1.1,4.2,2.3,4,5.4C171.3,93.1,163.1,122.5,143.8,148.2z"/>
<g>
	<path d="M45,68.3h26.3c18.4,0,31,10.7,31,27.8s-12.6,27.8-31,27.8H45V68.3z M70.6,111.3c9.4,0,15.8-5.6,15.8-15.2
		s-6.3-15.2-15.8-15.2h-9.9v30.5H70.6z"/>
	<path d="M105.3,96c0-16.9,12.9-28.9,30.5-28.9c10.2,0,18.5,3.7,23.9,10.5l-10,9c-3.5-4.2-7.8-6.5-13.1-6.5
		c-9.1,0-15.5,6.3-15.5,15.9s6.3,15.9,15.5,15.9c5.3,0,9.6-2.3,13.1-6.5l10,9c-5.4,6.7-13.6,10.5-23.9,10.5
		C118.3,124.9,105.3,112.9,105.3,96z"/>
</g>
</svg>
