<?xml version="1.0" encoding="utf-8"?>
<!-- Generator: Adobe Illustrator 27.1.0, SVG Export Plug-In . SVG Version: 6.00 Build 0)  -->
<svg version="1.1" id="Laag_1" xmlns="http://www.w3.org/2000/svg" xmlns:xlink="http://www.w3.org/1999/xlink" x="0px" y="0px"
	 viewBox="0 0 198.5 211.1" style="enable-background:new 0 0 198.5 211.1;" xml:space="preserve">
<path d="M176.4,40.6c-22.7-9.5-45.4-18.9-68.1-28.5c-2.7-1.2-5.4-1.7-8.1-1.7c-2.7,0-5.3,0.6-8.1,1.7C69.4,21.7,46.7,31.1,24,40.6
	C13.4,45,10.4,49.8,10.7,61.3c1,43.3,15.1,81.5,45.3,113c9.5,9.9,20.6,17.8,32.9,24c3.8,1.9,7.5,2.8,11.3,2.9
	c3.7,0,7.5-0.9,11.3-2.9c12.3-6.2,23.4-14.1,32.9-24c30.3-31.6,44.3-69.7,45.3-113C189.9,49.8,187,45,176.4,40.6z M143.8,148.2
	c-10.6,14.2-23.3,26-39.3,34.1c-1.5,0.8-3,1.2-4.4,1.2c-1.4,0-2.8-0.4-4.4-1.2c-16-8.1-28.7-19.9-39.3-34.1
	C37.2,122.5,29,93.1,27.7,61.4c-0.1-3.1,1.5-4.4,4-5.4c21.5-8.9,43-18,64.6-26.7c1.1-0.5,2.5-0.7,3.9-0.7c1.4,0,2.7,0.2,3.9,0.7
	c21.6,8.7,43.1,17.8,64.6,26.7c2.5,1.1,4.2,2.3,4,5.4C171.3,93.1,163.1,122.5,143.8,148.2z"/>
<g>
	<path d="M62.2,66.8h16.4v58H62.2V66.8z"/>
	<path d="M87.3,95.8c0-17.6,13.5-30.1,31.9-30.1c10.7,0,19.3,3.9,24.9,10.9l-10.4,9.4c-3.6-4.4-8.1-6.8-13.7-6.8
		c-9.5,0-16.2,6.6-16.2,16.6s6.6,16.6,16.2,16.6c5.5,0,10-2.4,13.7-6.8l10.4,9.4c-5.6,7-14.2,10.9-24.9,10.9
		C100.8,126,87.3,113.5,87.3,95.8z"/>
</g>
</svg>
