<?xml version="1.0" encoding="utf-8"?>
<!-- Generator: Adobe Illustrator 27.1.1, SVG Export Plug-In . SVG Version: 6.00 Build 0)  -->
<svg version="1.1" id="Laag_1" xmlns="http://www.w3.org/2000/svg" xmlns:xlink="http://www.w3.org/1999/xlink" x="0px" y="0px"
	 viewBox="0 0 198.5 211.1" style="enable-background:new 0 0 198.5 211.1;" xml:space="preserve">
<style type="text/css">
	.st0{fill:#FFFFFF;}
</style>
<path d="M175.6,40.2c-22.7-9.5-45.4-18.9-68.1-28.5c-2.7-1.2-5.4-1.7-8.1-1.7s-5.3,0.6-8.1,1.7c-22.7,9.6-45.4,18.9-68.1,28.5
	C12.6,44.7,9.6,49.5,9.9,61c1,43.3,15.1,81.5,45.3,113c9.5,9.9,20.6,17.8,32.9,24c3.8,1.9,7.5,2.8,11.3,2.9c3.7,0,7.5-0.9,11.3-2.9
	c12.3-6.2,23.4-14.1,32.9-24c30.3-31.6,44.3-69.7,45.3-113C189.2,49.5,186.2,44.7,175.6,40.2z"/>
<g>
	<path class="st0" d="M114.2,121.2c-17,9.5-32.7,1.5-39.4-8.6c-7.8-11.8-6-27.5,4.4-37.2c10.2-9.6,26-10.3,37.2-1.8
		c10.6,8.1,15.5,23.9,7,38.2c3.4,4.5,3.6,7.4,0.6,10.3C121,124.9,118,124.6,114.2,121.2z M121.9,96.6c0-12.8-10.2-23.1-23-23.1
		c-12.8,0-23.1,10.2-23.2,23c0,12.9,10.3,23.3,23.2,23.2C111.7,119.6,121.9,109.4,121.9,96.6z"/>
	<path class="st0" d="M123.5,127.3c2.1-2.1,4-4,6-6c4.4,3.7,9.5,8,14.5,12.4c2.4,2.1,2.2,5.4-0.2,7.8c-2.4,2.5-5.7,2.7-7.9,0.2
		C131.4,136.7,127.2,131.7,123.5,127.3z"/>
	<path class="st0" d="M98,108c-5.8-0.3-11-3-14.6-8.5c-1.3-2-1.2-3.8,0-5.8c6.6-11.2,24.2-11.2,30.9,0c1.3,2.1,1.2,4-0.1,6.1
		C111,104.6,104.8,108,98,108z M106.6,96.6c0-4.3-3.6-7.8-7.8-7.8c-4.3,0-7.8,3.5-7.8,7.8c0,4.3,3.5,7.8,7.8,7.8
		C103.1,104.4,106.6,100.8,106.6,96.6z"/>
	<path class="st0" d="M98.4,96.6c1.5,0,4.1,0,5.6,0c-0.4,3.1-1.9,4.9-4.5,5.3c-2.3,0.4-4.7-1.1-5.6-3.2c-0.9-2.2-0.3-4.8,1.6-6.3
		c2.1-1.6,4.3-1.6,7.4,0.7c-1.4,0.9-3.1,2.2-4.4,3C98.7,96.5,98.2,96.3,98.4,96.6z"/>
</g>
</svg>
