<?xml version="1.0" encoding="utf-8"?>
<!-- Generator: Adobe Illustrator 27.1.1, SVG Export Plug-In . SVG Version: 6.00 Build 0)  -->
<svg version="1.1" id="Laag_1" xmlns="http://www.w3.org/2000/svg" xmlns:xlink="http://www.w3.org/1999/xlink" x="0px" y="0px"
	 viewBox="0 0 198.5 211.1" style="enable-background:new 0 0 198.5 211.1;" xml:space="preserve">
<g>
	<path d="M99.5,73.3c-12.7,0-22.9,10.2-22.8,23c0,12.7,10.3,23,22.9,23c12.5,0,23-10.6,23-23.1C122.6,83.6,112.1,73.3,99.5,73.3z
		 M101.6,111.8c-6.6,1-13.9-3.1-16.6-9.5c-2.7-6.5-0.8-14,4.8-18.4c6.1-4.8,12.7-4.6,21.8,2.2c-4.1,2.5-9.1,6.4-13,8.8
		c0.7,1-0.7,0.4,0,1.5c4.3,0,12,0,16.3,0C113.7,105.5,109.2,110.6,101.6,111.8z"/>
	<path d="M175.6,40.2c-22.7-9.5-45.4-18.9-68.1-28.5c-2.7-1.2-5.4-1.7-8.1-1.7c-2.7,0-5.3,0.6-8.1,1.7
		c-22.7,9.6-45.4,18.9-68.1,28.5C12.6,44.7,9.6,49.5,9.9,61c1,43.3,15.1,81.5,45.3,113c9.5,9.9,20.6,17.8,32.9,24
		c3.8,1.9,7.5,2.8,11.3,2.9c3.7,0,7.5-0.9,11.3-2.9c12.3-6.2,23.4-14.1,32.9-24c30.3-31.6,44.3-69.7,45.3-113
		C189.2,49.5,186.2,44.7,175.6,40.2z M144.6,105.4c-9.1,14.6-27.3,24.5-47.4,24.4c-17.1-0.9-32.2-8.9-42.9-25
		c-3.8-5.7-3.6-11.2-0.1-17.1c19.5-33,71.2-33,90.8-0.1C148.7,93.9,148.4,99.4,144.6,105.4z"/>
</g>
<path d="M414.9,31.9c-22.7-9.5-45.4-18.9-68.1-28.5c-2.7-1.2-5.4-1.7-8.1-1.7c-2.7,0-5.3,0.6-8.1,1.7c-22.7,9.6-45.4,18.9-68.1,28.5
	c-10.6,4.4-13.6,9.2-13.3,20.7c1,43.3,15.1,81.5,45.3,113c9.5,9.9,20.6,17.8,32.9,24c3.8,1.9,7.5,2.8,11.3,2.9
	c3.7,0,7.5-0.9,11.3-2.9c12.3-6.2,23.4-14.1,32.9-24c30.3-31.6,44.3-69.7,45.3-113C428.4,41.1,425.5,36.3,414.9,31.9z M367.2,105.1
	h-20.5v20.5h-16v-20.5h-20.5v-16h20.5V68.6h16v20.5h20.5V105.1z"/>
</svg>
